<mxfile host="app.diagrams.net" modified="2024-01-13T05:21:00.832Z" agent="Mozilla/5.0 (Windows NT 10.0; Win64; x64) AppleWebKit/537.36 (KHTML, like Gecko) Chrome/120.0.0.0 Safari/537.36" etag="Jf_A6w_TKJJ-ZwOefh93" version="22.1.18" type="github">
  <diagram name="Page-1" id="dhdeflD0EHLjseNQf4z6">
    <mxGraphModel dx="2284" dy="792" grid="1" gridSize="10" guides="1" tooltips="1" connect="1" arrows="1" fold="1" page="1" pageScale="1" pageWidth="850" pageHeight="1100" math="0" shadow="0">
      <root>
        <mxCell id="0" />
        <mxCell id="1" parent="0" />
        <mxCell id="KJN6wBQRvFxrbSm_RT8C-2" value="Booking and Reservation&amp;nbsp;" style="shape=folder;fontStyle=1;tabWidth=110;tabHeight=30;tabPosition=left;html=1;boundedLbl=1;labelInHeader=1;container=1;collapsible=0;recursiveResize=0;whiteSpace=wrap;" parent="1" vertex="1">
          <mxGeometry x="120" y="230" width="170" height="110" as="geometry" />
        </mxCell>
        <mxCell id="KJN6wBQRvFxrbSm_RT8C-4" value="Agricultural Rental system" style="shape=folder;fontStyle=1;spacingTop=10;tabWidth=40;tabHeight=14;tabPosition=left;html=1;whiteSpace=wrap;" parent="1" vertex="1">
          <mxGeometry x="310" y="80" width="190" height="80" as="geometry" />
        </mxCell>
        <mxCell id="KJN6wBQRvFxrbSm_RT8C-5" value="" style="endArrow=open;startArrow=none;endFill=0;startFill=0;endSize=8;html=1;verticalAlign=bottom;dashed=1;labelBackgroundColor=none;rounded=0;exitX=0.058;exitY=1.05;exitDx=0;exitDy=0;exitPerimeter=0;entryX=0.233;entryY=-0.02;entryDx=0;entryDy=0;entryPerimeter=0;" parent="1" target="KJN6wBQRvFxrbSm_RT8C-7" edge="1">
          <mxGeometry x="0.7647" y="60" width="160" relative="1" as="geometry">
            <mxPoint x="310" y="122" as="sourcePoint" />
            <mxPoint x="240" y="240" as="targetPoint" />
            <Array as="points">
              <mxPoint x="240" y="120" />
              <mxPoint x="-245" y="120" />
            </Array>
            <mxPoint as="offset" />
          </mxGeometry>
        </mxCell>
        <mxCell id="KJN6wBQRvFxrbSm_RT8C-6" value="" style="endArrow=open;startArrow=none;endFill=0;startFill=0;endSize=8;html=1;verticalAlign=bottom;dashed=1;labelBackgroundColor=none;rounded=0;entryX=0.273;entryY=-0.01;entryDx=0;entryDy=0;entryPerimeter=0;exitX=0;exitY=0;exitDx=0;exitDy=63.5;exitPerimeter=0;" parent="1" source="KJN6wBQRvFxrbSm_RT8C-4" target="KJN6wBQRvFxrbSm_RT8C-9" edge="1">
          <mxGeometry x="0.7647" y="60" width="160" relative="1" as="geometry">
            <mxPoint x="320" y="160" as="sourcePoint" />
            <mxPoint x="-40" y="200" as="targetPoint" />
            <Array as="points">
              <mxPoint x="-39" y="144" />
            </Array>
            <mxPoint as="offset" />
          </mxGeometry>
        </mxCell>
        <mxCell id="KJN6wBQRvFxrbSm_RT8C-7" value="user managment" style="shape=folder;fontStyle=1;tabWidth=110;tabHeight=30;tabPosition=left;html=1;boundedLbl=1;labelInHeader=1;container=1;collapsible=0;recursiveResize=0;whiteSpace=wrap;" parent="1" vertex="1">
          <mxGeometry x="-280" y="240" width="150" height="100" as="geometry" />
        </mxCell>
        <mxCell id="KJN6wBQRvFxrbSm_RT8C-9" value="machinery managment" style="shape=folder;fontStyle=1;tabWidth=110;tabHeight=30;tabPosition=left;html=1;boundedLbl=1;labelInHeader=1;container=1;collapsible=0;recursiveResize=0;whiteSpace=wrap;" parent="1" vertex="1">
          <mxGeometry x="-80" y="240" width="150" height="100" as="geometry" />
        </mxCell>
        <mxCell id="KJN6wBQRvFxrbSm_RT8C-13" value="" style="endArrow=open;startArrow=none;endFill=0;startFill=0;endSize=8;html=1;verticalAlign=bottom;dashed=1;labelBackgroundColor=none;rounded=0;exitX=0;exitY=0.913;exitDx=0;exitDy=0;exitPerimeter=0;" parent="1" source="KJN6wBQRvFxrbSm_RT8C-4" edge="1">
          <mxGeometry x="0.7647" y="60" width="160" relative="1" as="geometry">
            <mxPoint x="320" y="154" as="sourcePoint" />
            <mxPoint x="160" y="220" as="targetPoint" />
            <Array as="points">
              <mxPoint x="160" y="154" />
            </Array>
            <mxPoint as="offset" />
          </mxGeometry>
        </mxCell>
        <mxCell id="KJN6wBQRvFxrbSm_RT8C-17" value="Communication Subsystem" style="shape=folder;fontStyle=1;tabWidth=110;tabHeight=30;tabPosition=left;html=1;boundedLbl=1;labelInHeader=1;container=1;collapsible=0;recursiveResize=0;whiteSpace=wrap;" parent="1" vertex="1">
          <mxGeometry x="330" y="235" width="170" height="110" as="geometry" />
        </mxCell>
        <mxCell id="KJN6wBQRvFxrbSm_RT8C-19" value="" style="endArrow=open;startArrow=none;endFill=0;startFill=0;endSize=8;html=1;verticalAlign=bottom;dashed=1;labelBackgroundColor=none;rounded=0;exitX=0.5;exitY=1;exitDx=0;exitDy=0;exitPerimeter=0;entryX=0.435;entryY=0.018;entryDx=0;entryDy=0;entryPerimeter=0;" parent="1" source="KJN6wBQRvFxrbSm_RT8C-4" target="KJN6wBQRvFxrbSm_RT8C-17" edge="1">
          <mxGeometry x="0.7647" y="60" width="160" relative="1" as="geometry">
            <mxPoint x="450" y="173" as="sourcePoint" />
            <mxPoint x="300" y="240" as="targetPoint" />
            <Array as="points" />
            <mxPoint as="offset" />
          </mxGeometry>
        </mxCell>
        <mxCell id="KJN6wBQRvFxrbSm_RT8C-20" value="Rating and Review Subsystem" style="shape=folder;fontStyle=1;tabWidth=110;tabHeight=30;tabPosition=left;html=1;boundedLbl=1;labelInHeader=1;container=1;collapsible=0;recursiveResize=0;whiteSpace=wrap;" parent="1" vertex="1">
          <mxGeometry x="550" y="240" width="170" height="110" as="geometry" />
        </mxCell>
        <mxCell id="KJN6wBQRvFxrbSm_RT8C-22" value="" style="endArrow=open;startArrow=none;endFill=0;startFill=0;endSize=8;html=1;verticalAlign=bottom;dashed=1;labelBackgroundColor=none;rounded=0;exitX=0.5;exitY=1;exitDx=0;exitDy=0;exitPerimeter=0;entryX=0;entryY=0;entryDx=55;entryDy=0;entryPerimeter=0;" parent="1" target="KJN6wBQRvFxrbSm_RT8C-20" edge="1">
          <mxGeometry x="0.7647" y="60" width="160" relative="1" as="geometry">
            <mxPoint x="441" y="160" as="sourcePoint" />
            <mxPoint x="440" y="237" as="targetPoint" />
            <Array as="points">
              <mxPoint x="605" y="160" />
            </Array>
            <mxPoint as="offset" />
          </mxGeometry>
        </mxCell>
        <mxCell id="KJN6wBQRvFxrbSm_RT8C-23" value="Payment Processing Subsystem&amp;nbsp;" style="shape=folder;fontStyle=1;tabWidth=110;tabHeight=60;tabPosition=left;html=1;boundedLbl=1;labelInHeader=1;container=1;collapsible=0;recursiveResize=0;whiteSpace=wrap;" parent="1" vertex="1">
          <mxGeometry x="760" y="235" width="170" height="135" as="geometry" />
        </mxCell>
        <mxCell id="KJN6wBQRvFxrbSm_RT8C-26" value="" style="endArrow=open;startArrow=none;endFill=0;startFill=0;endSize=8;html=1;verticalAlign=bottom;dashed=1;labelBackgroundColor=none;rounded=0;exitX=0.5;exitY=1;exitDx=0;exitDy=0;exitPerimeter=0;entryX=0.253;entryY=0.006;entryDx=0;entryDy=0;entryPerimeter=0;" parent="1" target="KJN6wBQRvFxrbSm_RT8C-23" edge="1">
          <mxGeometry x="0.7647" y="60" width="160" relative="1" as="geometry">
            <mxPoint x="500" y="120" as="sourcePoint" />
            <mxPoint x="664" y="200" as="targetPoint" />
            <Array as="points">
              <mxPoint x="800" y="120" />
            </Array>
            <mxPoint as="offset" />
          </mxGeometry>
        </mxCell>
        <mxCell id="KJN6wBQRvFxrbSm_RT8C-27" value="User&amp;nbsp;" style="shape=folder;fontStyle=1;tabWidth=110;tabHeight=30;tabPosition=left;html=1;boundedLbl=1;labelInHeader=1;container=1;collapsible=0;recursiveResize=0;whiteSpace=wrap;" parent="1" vertex="1">
          <mxGeometry x="-270" y="390" width="150" height="180" as="geometry" />
        </mxCell>
        <mxCell id="KJN6wBQRvFxrbSm_RT8C-28" value="Registration" style="html=1;whiteSpace=wrap;" parent="KJN6wBQRvFxrbSm_RT8C-27" vertex="1">
          <mxGeometry width="110" height="30" relative="1" as="geometry">
            <mxPoint x="20" y="50" as="offset" />
          </mxGeometry>
        </mxCell>
        <mxCell id="KJN6wBQRvFxrbSm_RT8C-49" value="authorization" style="html=1;whiteSpace=wrap;" parent="KJN6wBQRvFxrbSm_RT8C-27" vertex="1">
          <mxGeometry width="110" height="30" relative="1" as="geometry">
            <mxPoint x="20" y="140" as="offset" />
          </mxGeometry>
        </mxCell>
        <mxCell id="Vls8JxGaYo9dqXqO4WZi-1" value="authentication" style="html=1;whiteSpace=wrap;" vertex="1" parent="KJN6wBQRvFxrbSm_RT8C-27">
          <mxGeometry width="110" height="30" relative="1" as="geometry">
            <mxPoint x="20" y="100" as="offset" />
          </mxGeometry>
        </mxCell>
        <mxCell id="KJN6wBQRvFxrbSm_RT8C-31" value="&amp;lt;&amp;lt;idepends on&amp;gt;&amp;gt;" style="edgeStyle=none;html=1;endArrow=open;endSize=12;dashed=1;verticalAlign=bottom;rounded=0;" parent="1" edge="1">
          <mxGeometry x="0.2" y="20" width="160" relative="1" as="geometry">
            <mxPoint x="-190" y="340" as="sourcePoint" />
            <mxPoint x="-190" y="390" as="targetPoint" />
            <Array as="points">
              <mxPoint x="-190" y="390" />
            </Array>
            <mxPoint as="offset" />
          </mxGeometry>
        </mxCell>
        <mxCell id="KJN6wBQRvFxrbSm_RT8C-32" value="Communication Subsystem Facilitation" style="shape=folder;fontStyle=1;tabWidth=130;tabHeight=47;tabPosition=left;html=1;boundedLbl=1;labelInHeader=1;container=1;collapsible=0;recursiveResize=0;whiteSpace=wrap;" parent="1" vertex="1">
          <mxGeometry x="320" y="472.5" width="190" height="147.5" as="geometry" />
        </mxCell>
        <mxCell id="KJN6wBQRvFxrbSm_RT8C-33" value="Messaging and communication&amp;nbsp;&lt;br&gt;Between userss" style="html=1;whiteSpace=wrap;" parent="KJN6wBQRvFxrbSm_RT8C-32" vertex="1">
          <mxGeometry width="150" height="60" relative="1" as="geometry">
            <mxPoint x="20" y="59" as="offset" />
          </mxGeometry>
        </mxCell>
        <mxCell id="KJN6wBQRvFxrbSm_RT8C-35" value="Booking and Reservation Handling" style="shape=folder;fontStyle=1;tabWidth=120;tabHeight=40;tabPosition=left;html=1;boundedLbl=1;labelInHeader=1;container=1;collapsible=0;recursiveResize=0;whiteSpace=wrap;" parent="1" vertex="1">
          <mxGeometry x="110" y="400" width="150" height="220" as="geometry" />
        </mxCell>
        <mxCell id="KJN6wBQRvFxrbSm_RT8C-36" value="booking requests" style="html=1;whiteSpace=wrap;" parent="KJN6wBQRvFxrbSm_RT8C-35" vertex="1">
          <mxGeometry width="110" height="30" relative="1" as="geometry">
            <mxPoint x="20" y="50" as="offset" />
          </mxGeometry>
        </mxCell>
        <mxCell id="KJN6wBQRvFxrbSm_RT8C-50" value="Reservations" style="html=1;whiteSpace=wrap;" parent="KJN6wBQRvFxrbSm_RT8C-35" vertex="1">
          <mxGeometry width="110" height="30" relative="1" as="geometry">
            <mxPoint x="20" y="95" as="offset" />
          </mxGeometry>
        </mxCell>
        <mxCell id="KJN6wBQRvFxrbSm_RT8C-51" value="Schedules" style="html=1;whiteSpace=wrap;" parent="KJN6wBQRvFxrbSm_RT8C-35" vertex="1">
          <mxGeometry width="110" height="30" relative="1" as="geometry">
            <mxPoint x="20" y="140" as="offset" />
          </mxGeometry>
        </mxCell>
        <mxCell id="KJN6wBQRvFxrbSm_RT8C-53" value="Payments" style="html=1;whiteSpace=wrap;" parent="KJN6wBQRvFxrbSm_RT8C-35" vertex="1">
          <mxGeometry width="110" height="30" relative="1" as="geometry">
            <mxPoint x="20" y="180" as="offset" />
          </mxGeometry>
        </mxCell>
        <mxCell id="KJN6wBQRvFxrbSm_RT8C-37" value="Rating And Review Subsystem" style="shape=folder;fontStyle=1;tabWidth=140;tabHeight=40;tabPosition=left;html=1;boundedLbl=1;labelInHeader=1;container=1;collapsible=0;recursiveResize=0;whiteSpace=wrap;" parent="1" vertex="1">
          <mxGeometry x="570" y="470" width="170" height="150" as="geometry" />
        </mxCell>
        <mxCell id="KJN6wBQRvFxrbSm_RT8C-38" value="Ratinge&amp;nbsp;" style="html=1;whiteSpace=wrap;" parent="KJN6wBQRvFxrbSm_RT8C-37" vertex="1">
          <mxGeometry width="110" height="30" relative="1" as="geometry">
            <mxPoint x="20" y="50" as="offset" />
          </mxGeometry>
        </mxCell>
        <mxCell id="Vls8JxGaYo9dqXqO4WZi-3" value="Review&lt;br&gt;" style="html=1;whiteSpace=wrap;" vertex="1" parent="KJN6wBQRvFxrbSm_RT8C-37">
          <mxGeometry width="110" height="30" relative="1" as="geometry">
            <mxPoint x="20" y="100" as="offset" />
          </mxGeometry>
        </mxCell>
        <mxCell id="KJN6wBQRvFxrbSm_RT8C-40" value="machinery&amp;nbsp;" style="shape=folder;fontStyle=1;tabWidth=110;tabHeight=30;tabPosition=left;html=1;boundedLbl=1;labelInHeader=1;container=1;collapsible=0;recursiveResize=0;whiteSpace=wrap;" parent="1" vertex="1">
          <mxGeometry x="-80" y="402.5" width="150" height="207.5" as="geometry" />
        </mxCell>
        <mxCell id="KJN6wBQRvFxrbSm_RT8C-41" value=" Listing" style="html=1;whiteSpace=wrap;" parent="KJN6wBQRvFxrbSm_RT8C-40" vertex="1">
          <mxGeometry width="110" height="30" relative="1" as="geometry">
            <mxPoint x="20" y="50" as="offset" />
          </mxGeometry>
        </mxCell>
        <mxCell id="KJN6wBQRvFxrbSm_RT8C-46" value=" Categories" style="html=1;whiteSpace=wrap;" parent="KJN6wBQRvFxrbSm_RT8C-40" vertex="1">
          <mxGeometry width="110" height="30" relative="1" as="geometry">
            <mxPoint x="20" y="88" as="offset" />
          </mxGeometry>
        </mxCell>
        <mxCell id="KJN6wBQRvFxrbSm_RT8C-47" value=" Specification" style="html=1;whiteSpace=wrap;" parent="KJN6wBQRvFxrbSm_RT8C-40" vertex="1">
          <mxGeometry width="110" height="30" relative="1" as="geometry">
            <mxPoint x="20" y="128" as="offset" />
          </mxGeometry>
        </mxCell>
        <mxCell id="KJN6wBQRvFxrbSm_RT8C-48" value="Photos" style="html=1;whiteSpace=wrap;" parent="KJN6wBQRvFxrbSm_RT8C-40" vertex="1">
          <mxGeometry width="110" height="30" relative="1" as="geometry">
            <mxPoint x="20" y="168" as="offset" />
          </mxGeometry>
        </mxCell>
        <mxCell id="KJN6wBQRvFxrbSm_RT8C-42" value="&amp;lt;&amp;lt;idepends on&amp;gt;&amp;gt;" style="edgeStyle=none;html=1;endArrow=open;endSize=12;dashed=1;verticalAlign=bottom;rounded=0;exitX=0.433;exitY=0.98;exitDx=0;exitDy=0;exitPerimeter=0;" parent="1" source="KJN6wBQRvFxrbSm_RT8C-9" edge="1">
          <mxGeometry x="0.2" y="20" width="160" relative="1" as="geometry">
            <mxPoint x="-15.5" y="352.5" as="sourcePoint" />
            <mxPoint x="-15.5" y="402.5" as="targetPoint" />
            <Array as="points">
              <mxPoint x="-15.5" y="402.5" />
            </Array>
            <mxPoint as="offset" />
          </mxGeometry>
        </mxCell>
        <mxCell id="KJN6wBQRvFxrbSm_RT8C-43" value="&amp;lt;&amp;lt;idepends on&amp;gt;&amp;gt;" style="edgeStyle=none;html=1;endArrow=open;endSize=12;dashed=1;verticalAlign=bottom;rounded=0;exitX=0.306;exitY=0.991;exitDx=0;exitDy=0;exitPerimeter=0;" parent="1" source="KJN6wBQRvFxrbSm_RT8C-2" edge="1">
          <mxGeometry x="0.2" y="20" width="160" relative="1" as="geometry">
            <mxPoint x="170" y="340" as="sourcePoint" />
            <mxPoint x="170" y="402.5" as="targetPoint" />
            <Array as="points">
              <mxPoint x="170" y="402.5" />
            </Array>
            <mxPoint as="offset" />
          </mxGeometry>
        </mxCell>
        <mxCell id="KJN6wBQRvFxrbSm_RT8C-44" value="&amp;lt;&amp;lt;idepends on&amp;gt;&amp;gt;" style="edgeStyle=none;html=1;endArrow=open;endSize=12;dashed=1;verticalAlign=bottom;rounded=0;entryX=0.437;entryY=0.017;entryDx=0;entryDy=0;entryPerimeter=0;" parent="1" edge="1" target="KJN6wBQRvFxrbSm_RT8C-32">
          <mxGeometry y="40" width="160" relative="1" as="geometry">
            <mxPoint x="404.5" y="345" as="sourcePoint" />
            <mxPoint x="404.5" y="395" as="targetPoint" />
            <Array as="points">
              <mxPoint x="404.5" y="395" />
            </Array>
            <mxPoint as="offset" />
          </mxGeometry>
        </mxCell>
        <mxCell id="KJN6wBQRvFxrbSm_RT8C-45" value="&amp;lt;&amp;lt;idepends on&amp;gt;&amp;gt;" style="edgeStyle=none;html=1;endArrow=open;endSize=12;dashed=1;verticalAlign=bottom;rounded=0;" parent="1" edge="1">
          <mxGeometry x="-0.2" y="30" width="160" relative="1" as="geometry">
            <mxPoint x="610" y="350" as="sourcePoint" />
            <mxPoint x="610" y="400" as="targetPoint" />
            <Array as="points">
              <mxPoint x="610" y="400" />
            </Array>
            <mxPoint as="offset" />
          </mxGeometry>
        </mxCell>
        <mxCell id="Vls8JxGaYo9dqXqO4WZi-4" value="&amp;lt;&amp;lt;idepends on&amp;gt;&amp;gt;" style="edgeStyle=none;html=1;endArrow=open;endSize=12;dashed=1;verticalAlign=bottom;rounded=0;" edge="1" parent="1">
          <mxGeometry x="-0.2" y="16" width="160" relative="1" as="geometry">
            <mxPoint x="844.5" y="370" as="sourcePoint" />
            <mxPoint x="844.5" y="420" as="targetPoint" />
            <Array as="points">
              <mxPoint x="844.5" y="420" />
            </Array>
            <mxPoint as="offset" />
          </mxGeometry>
        </mxCell>
        <mxCell id="Vls8JxGaYo9dqXqO4WZi-5" value="Payment Processing&amp;nbsp;" style="shape=folder;fontStyle=1;tabWidth=140;tabHeight=40;tabPosition=left;html=1;boundedLbl=1;labelInHeader=1;container=1;collapsible=0;recursiveResize=0;whiteSpace=wrap;" vertex="1" parent="1">
          <mxGeometry x="780" y="420" width="170" height="150" as="geometry" />
        </mxCell>
        <mxCell id="Vls8JxGaYo9dqXqO4WZi-6" value="handling payment" style="html=1;whiteSpace=wrap;" vertex="1" parent="Vls8JxGaYo9dqXqO4WZi-5">
          <mxGeometry width="110" height="30" relative="1" as="geometry">
            <mxPoint x="20" y="50" as="offset" />
          </mxGeometry>
        </mxCell>
        <mxCell id="Vls8JxGaYo9dqXqO4WZi-7" value="Payment Gateaways" style="html=1;whiteSpace=wrap;" vertex="1" parent="Vls8JxGaYo9dqXqO4WZi-5">
          <mxGeometry width="110" height="30" relative="1" as="geometry">
            <mxPoint x="20" y="100" as="offset" />
          </mxGeometry>
        </mxCell>
        <mxCell id="Vls8JxGaYo9dqXqO4WZi-8" value="&amp;lt;&amp;lt;Associates with&amp;gt;&amp;gt;" style="edgeStyle=none;html=1;endArrow=open;endSize=12;dashed=1;verticalAlign=bottom;rounded=0;exitX=0.5;exitY=1;exitDx=0;exitDy=0;exitPerimeter=0;" edge="1" parent="1" source="KJN6wBQRvFxrbSm_RT8C-27">
          <mxGeometry x="0.1988" y="20" width="160" relative="1" as="geometry">
            <mxPoint x="-200" y="630" as="sourcePoint" />
            <mxPoint x="-200" y="680" as="targetPoint" />
            <Array as="points">
              <mxPoint x="-200" y="680" />
            </Array>
            <mxPoint as="offset" />
          </mxGeometry>
        </mxCell>
        <mxCell id="Vls8JxGaYo9dqXqO4WZi-9" value="&amp;lt;&amp;lt;idepends on&amp;gt;&amp;gt;" style="edgeStyle=none;html=1;endArrow=open;endSize=12;dashed=1;verticalAlign=bottom;rounded=0;" edge="1" parent="1">
          <mxGeometry x="-0.2" y="30" width="160" relative="1" as="geometry">
            <mxPoint x="620" y="380" as="sourcePoint" />
            <mxPoint x="620" y="430" as="targetPoint" />
            <Array as="points">
              <mxPoint x="620" y="430" />
            </Array>
            <mxPoint as="offset" />
          </mxGeometry>
        </mxCell>
      </root>
    </mxGraphModel>
  </diagram>
</mxfile>
